<svg xmlns="http://www.w3.org/2000/svg" width="93" height="413" viewBox="0 0 93 413" fill="none"><mask id="a" style="mask-type:alpha" maskUnits="userSpaceOnUse" x="3" y="0" width="84" height="411"><path fill="#D9D9D9" d="M3 0h84v411H3z"></path></mask><g mask="url(#a)"><path d="M13.61 400.34c2.62 1.24 5.3 1.63 8 1.87.48 0 .97-.06 1.44-.2 6.7-1.4 13.4-2.84 20.1-4.28a6.82 6.82 0 0 0 1.94-.83c1.07-.62 2.08-1.34 3.13-2 .28-.19.58-.31.94-.5l-.08 3.11c3.2 4.35 6.7 8.48 10.46 12.37a2.7 2.7 0 0 0 1.82-.64c.33-.25.68-.47 1.05-.67 2.04-1.06 3.62-2.66 5.14-4.33.23-.25.43-.53.58-.83 1.14-2.45 2.6-4.77 3.3-7.4.56-2.14.97-4.32 1.44-6.49.08-.33.13-.66.2-1.06l6.64-1.63c-.2-1.6-.4-3.12-.58-4.65-.47-4.12-1.51-8.13-2.52-12.15a5.1 5.1 0 0 1-.07-2.22c1.24-6.92 2.54-13.83 3.65-20.78a182.7 182.7 0 0 0 2.23-27.4c.07-8.82-.45-17.62-1.54-26.36-.8-6.43-1.96-12.8-3.39-19.11-.45-2.03-.93-4.04-1.32-6.08a4.22 4.22 0 0 1 .09-1.65c1.02-4.75 2.07-9.48 3.1-14.22a123.68 123.68 0 0 0 2.83-18.84c.22-3.56.2-7.15.22-10.71.02-4.71-.07-9.4-.09-14.11-.01-3.31 0-6.62.01-10.09.64-.91 1.41-1.89 2.06-2.94a10.48 10.48 0 0 0 1.48-5.69c-.1-6.21-.12-12.42-.15-18.62l-.23-56.9-.36-85.34c0-1.58.02-3.16-.04-4.74-.06-.75-.18-1.49-.38-2.21-.52-2.35-1.97-4.2-3.43-6.01-.28-.3-.59-.58-.92-.84a74.36 74.36 0 0 0-8.7-6.45 37.02 37.02 0 0 0-10.4-4.55 59.04 59.04 0 0 0-15.4-2.04c-4.78-.02-9.55.5-14.21 1.55-2.8.61-5.53 1.49-8.16 2.61-1.7.72-3.32 1.6-4.85 2.63a147.4 147.4 0 0 0-8.6 6.42 13.4 13.4 0 0 0-3.87 5.18c-.63 1.44-.94 3-.92 4.58.07 12.8.11 25.59.13 38.37l.3 75.97.19 47.75c0 1.39-.1 2.79.05 4.16.29 2.53 1.35 4.9 3.05 6.78l.45.54.02 7.5-.05.24h.05v.65l-.13.09.12.2.02 5.66c0 4.56-.01 9.11.05 13.66.05 1.2.21 2.4.47 3.58.42 2.13.9 4.26 1.38 6.4.13.62.3 1.24.52 1.84.98 2.58 1.49 5.28 2.05 7.97.24 1.14.47 2.3.8 3.4 1.64 5.51 2.31 11.2 3.38 16.82.76 4.03 1.27 8.1 1.87 11.93l-.2.46c-1.31 3.1-2.58 6-3.7 8.94-2.97 7.68-5.2 15.55-5.75 23.81a66.34 66.34 0 0 0 .96 16.63 5286.6 5286.6 0 0 1 6.5 35.66c.95 5.33 1.74 10.7 2.61 16.14-.86 2-1.78 4.06-2.65 6.14-1 2.44-2.06 4.86-2.91 7.34-.54 1.55-.78 3.21-1.09 4.82-.08.6-.13 1.2-.13 1.8Zm7.45-20.52c.33-.2.68-.36 1.04-.49.34-.06.68-.05 1.01.02.67.13 1.35.15 2.03.08l5.75 6.73 1.04 1.24c-.28.06-.57 0-.82-.15-1.72-1-3.43-2.02-5.16-3.02-1.65-.9-3.12-2.1-4.34-3.55-.2-.28-.38-.56-.55-.86Zm13.46 9.19-.67-.8.08-.06-7.64-8.93c.6-.16 1.17-.38 1.72-.66 1.57-.78 3.33-.83 5.07-1.19l9.88 12.17-.13.24-7.77-.22c-.23-.23-.4-.39-.53-.56Zm-20.2-49.29c.16.38.32.76.45 1.13.83 2.18 1.56 4.4 2.5 6.53 3.35 7.73 7.2 15.23 11.49 22.48 1.32 2.21 2.43 4.55 3.67 6.9-.35.08-.67.17-1.01.22-1.85.33-3.7.63-5.4 1.52-.09.04-.18.08-.27.1l-.6.07c-1.41 0-2.83-.05-4.24-.07l-6.73-38.86.14-.02Zm5.7-58.76c.03.02.02.1.03.13.44 3.28 1.29 9.8 2.1 17.16-3.84 18.63-1.37 35.46 1.49 46.23a97.59 97.59 0 0 0 7.3 19.4l-.02.03c.54.78 1.05 1.55 1.61 2.31a104.3 104.3 0 0 1 9.53 16.1c.9 1.88.9 3.84.98 5.87l-.3-.32-8.76-10.78c-.3-.38-.54-.8-.74-1.25-1.18-2.44-2.19-4.97-3.53-7.31-5.23-9.08-9.96-18.39-13.6-28.23-2.54-6.89-4.34-13.93-4.68-21.3-.28-6.1.28-12.2 1.68-18.15 1.34-5.6 3.15-11.07 5.43-16.35.5-1.15 1-2.37 1.48-3.55Zm23.45 101.1c-1.5-2.76-2.98-5.68-4.62-8.5-1.63-2.82-3.43-5.52-5.25-8.43 1.81.48 3.23-.52 4.77-.95.56 1.05 1.15 1.92 1.48 2.9.8 2.47 1.91 4.82 3.31 7 .35.54.68 1.1.98 1.67l3.4 6.61c.09.2.16.42.22.63l-4.29-.92Zm-1.75-12.1c.17-.1.36-.16.55-.21 4.78-.49 9.6.28 14 2.23a42.22 42.22 0 0 1 11.15 6.51c.7.58 1.4 1.18 2.13 1.74l-10.49 2.74-9.44 2a101.57 101.57 0 0 0-7.9-15.02Zm-5.4-5.78c-.8.38-1.72.36-2.49-.06l-1.68-.82-.3.03c-.36-.67-4.3-8.06-7.24-19.15-2.68-10.1-5.1-25.5-2.11-42.78.57 5.51 1.1 11.29 1.39 16.39.86 15.53 10.55 40.2 13.94 45.88-.52.13-1.02.3-1.51.5v.01ZM10.77 217.6c2.98 5.86 11.29 22.44 14.87 32.48 2.84 7.96 9.86 24.9 14.52 36.03-.73-1.27-1.48-2.53-2.24-3.77-1.22-1.99-2.3-4.05-3.47-6.07a414.07 414.07 0 0 1-14.7-27.59 122.48 122.48 0 0 1-6.56-16.57c-.1-.36-.19-.73-.27-1.1-.3-1.39-.6-2.8-.92-4.2-.24-1.13-.62-2.25-.74-3.4-.19-1.94-.34-3.87-.5-5.8Zm-.49-8.87c3.82 6.36 17.95 30.48 22.47 46.31a648.84 648.84 0 0 0 13.95 42.89l-.2-.39-1.84-3.35c-3.25-7.66-14.32-33.94-18.08-44.44-4.41-12.36-15.9-34.51-16.02-34.74l-.12-1.36a46.78 46.78 0 0 1-.16-4.93Zm59.5-200c-16.65-5.48-33.2-5.23-49.8.35 1.34-.72 2.64-1.54 4.03-2.15A48.49 48.49 0 0 1 39.3 3.16c5.29-.46 10.62-.27 15.86.58C59.12 4.4 63 5.51 66.7 7.1c1.08.46 2.05 1.08 3.07 1.63h.01ZM84.92 185.5a1.36 1.36 0 0 1-.58-.67c-.52-1.32-1.48-2.32-2.38-3.38a20.91 20.91 0 0 0-5.92-4.65c-2.8-1.63-5.8-2.9-8.91-3.77-.87-.23-1.68-.67-2.56-.88-1.8-.4-3.61-.7-5.42-1.06-.47-.09-.93-.3-1.4-.35-1.35-.15-2.7-.22-4.05-.35-1.12-.1-2.23-.33-3.35-.37-2.21-.1-4.43-.1-6.65-.13a9 9 0 0 0-.78.02l-6.6.55c-.3.03-.6.07-.9.13-.84.18-1.68.4-2.53.55-2.19.34-4.35.82-6.47 1.46a71.53 71.53 0 0 0-7.2 2.57 29.87 29.87 0 0 0-9.5 6.33 19.1 19.1 0 0 0-1.69 2.1c-.42.6-.77 1.25-1.16 1.87l-.21-.06c-.02-.32-.06-.64-.06-.96A495304.07 495304.07 0 0 1 6 24.84c0-1.93.71-3.63 1.63-5.2 1.58-2.7 3.95-4.73 6.54-6.42a41.02 41.02 0 0 1 10.89-4.88 66.9 66.9 0 0 1 15.43-2.63c4.03-.23 8.08-.15 12.1.22C56.57 6.29 60.5 7 64.34 8.1c3.05.83 6 1.96 8.83 3.37 3.73 1.91 7.1 4.25 9.45 7.82a9.46 9.46 0 0 1 1.74 5.15l.27 71.34.2 54.4.13 34.1c-.01.41-.05.81-.04 1.22Zm-2.64 10.58c0-1.03-.17-2.12.08-3.1.34-1.32.19-2.58.1-3.9a9.82 9.82 0 0 0-2-5.08 19.67 19.67 0 0 0-6.8-5.84 47.17 47.17 0 0 0-13.32-4.78 72.22 72.22 0 0 0-30.01.35 46.1 46.1 0 0 0-6.17 1.77 40.76 40.76 0 0 0-5.35 2.38c-2.44 1.3-4.75 2.81-6.54 4.93a15.56 15.56 0 0 0-2.55 3.95c-.65 1.52-1.06 3.22-.58 4.96a6 6 0 0 1 .18 1.34c.06 1.22.08 2.44.12 3.71-.19-.06-.3-.07-.32-.11-.58-1.1-1.28-2.16-1.67-3.31a8.11 8.11 0 0 1-.4-3.23c.29-2.64 1.41-5.12 3.21-7.07a26.17 26.17 0 0 1 8-5.97 55.32 55.32 0 0 1 13-4.44 62.2 62.2 0 0 1 10.86-1.26c2.93-.12 5.87-.1 8.8.08 4.1.21 8.16.84 12.14 1.87 2.4.62 4.77 1.38 7.09 2.25 1.83.7 3.6 1.56 5.26 2.57 2.37 1.46 4.61 3.1 6.42 5.28a11.96 11.96 0 0 1 2.39 4.31c.85 3 .23 5.86-1.65 8.38-.1 0-.2-.02-.3-.04Zm-.73 17.32c-1.02-3.5-3.38-8.3-8.8-12.9-9.12-7.74-25.56-13.81-28.89-13.02a1.1 1.1 0 0 0-.82.6c-.91 2.15 1.6 6.9 1.9 7.44.92 2.04 1.89 4.07 2.93 6.05 2.23 4.27 4.6 8.46 6.82 12.74a204.64 204.64 0 0 1 5.2 10.95c-16.8-26.25-31.88-27.81-39.64-26.22-4.52.93-8.07 3.25-9.76 5.27l-.28.13-.02-1.73c-.02-3.91-.14-7.82-.03-11.73.07-1.36.4-2.68.98-3.9a15.42 15.42 0 0 1 4.94-5.78 34.04 34.04 0 0 1 9.6-4.92 49.92 49.92 0 0 1 9.05-2.24c2.3-.32 4.61-.6 6.92-.72 2.09-.14 4.2-.14 6.29-.08 3.63.1 7.26.5 10.83 1.2 3.89.72 7.67 1.9 11.28 3.51 3.2 1.48 6.16 3.3 8.52 5.98 1.63 1.87 2.78 3.9 2.9 6.44.02.52 0 1.04 0 1.57l.05 15.69.03 5.67Zm-6.15 52.07c-.15-.5-.24-.79-.31-1.08-1.3-4.7-2.54-9.44-4.19-14.05-1.73-4.78-3.23-9.64-5.15-14.35a338.28 338.28 0 0 0-15.2-32c-1.43-2.66-2.98-5.24-4.32-7.93-.16-.33-.32-.65-.46-1l.07-.03c-.16-.29-.32-.61-.48-.96-.44-1.1-.82-2.24-1.25-3.35l-.06-.19c-.2-.83-.26-1.56-.08-2.03.52-.35 4.18.1 10.9 2.83 6.72 2.74 13.03 6.36 17.23 9.95 9.7 8.22 9.5 17.37 9.5 17.46l-.01-.12c0 1.72.03 3.44.06 5.15.13 6.97-.44 13.93-1.72 20.78-1.3 6.75-2.8 13.48-4.23 20.2-.08.25-.18.49-.3.72Zm.42 101.04c-.11-.13-.19-.17-.2-.23-.28-.9-.56-1.8-.8-2.7a231.96 231.96 0 0 0-8.73-25.52A299.2 299.2 0 0 0 54.69 313c-1.14-2.2-2.28-4.4-3.43-6.58l.02-.02c-3.79-7.72-12.55-34.1-17.56-51.65-5.11-17.87-22.32-46.13-23.48-48.06l.01-.2.14.02c.16-1.36 3.78-5.2 10.06-6.5 7.99-1.62 24.2.15 41.97 31.04h.03l1.41 3.24c.92 2.1 1.86 4.2 2.62 6.36 2.19 6.26 4.55 12.44 6.41 18.8 2.23 7.6 4.14 15.27 5.6 23.04a192.99 192.99 0 0 1 1.1 62.8c-1.03 6.81-2.32 13.57-3.5 20.35-.08.3-.16.59-.27.87Zm-18.94 4.7c-4.4-1.74-8.92-2.67-13.67-2.27l-1.49.13c-.16-.39-.3-.72-.42-1.06-.41-1.1-.8-2.2-1.22-3.29a1.87 1.87 0 0 0-1.2-1.26c-2.83-4.43-13.11-30-14-45.75-.2-3.5-.5-7.33-.86-11.17-.01-.44-.02-.8-.05-1.15l-.46-4.1c-1.23-11.82-2.84-22.56-2.84-22.56-.24-1.75-.48-3.5-.75-5.24-.95-6.55-2.23-13.06-3.38-19.58-.1-.6-.3-1.17-.45-1.75-.59-2.37-1.2-4.74-1.76-7.12-.51-2.24-1.03-4.46-1.66-6.67-.91-3.18-1.59-6.43-2.3-9.66-.25-1.1-.2-2.23.12-3.3.1.43.2.8.26 1.16a81.52 81.52 0 0 0 4.02 14.44c1.76 4.47 3.79 8.86 5.92 13.17 4.56 9.2 9.73 18.09 14.89 26.97 7.28 12.52 14.48 25.08 20.92 38.07 3.79 7.63 7.23 15.4 10.34 23.32A222.64 222.64 0 0 1 74.39 365c1.5 5.41 3.07 10.8 3.93 16.35.2 1.28.34 2.58.5 3.87a2.46 2.46 0 0 1-1.03-.6 15.57 15.57 0 0 0-3.92-2.83c-2.03-.95-3.8-2.3-5.49-3.73a41.17 41.17 0 0 0-11.5-6.85Zm-2.13 20.45c-.4.05-.81.07-1.22.07l-3.48-6.15 9.16-1.96.66-.15 6.86-1.46c-.05-.03 3.88-1 3.88-1 .62.43 1.26.8 1.94 1.13.78.37 1.53.8 2.26 1.26 1.26.8 2.3 1.86 3.51 2.98l-1.1.34c-7.43 1.9-14.94 3.5-22.47 4.94Zm-.39.76 4.21-.81c-.13.18-.3.34-.47.48l-.19.15a21.38 21.38 0 0 1-5.89 2.8l2.34-2.62Zm12.98 10.27-1.54-1.94.03-.05-1.4-1.67-5.16-6.47.88-1.26L72 388.8c-.16 1.24-.27 2.38-.47 3.47a30.92 30.92 0 0 1-3.1 8.44c-.34.68-.68 1.35-1.07 2v-.01Zm-17.41-5.62 8.34-3.83 1.25 1.41 2.1 2.5 5.12 6.41.02-.02c-.25.35-.52.7-.81 1.01-1.73 1.85-3.82 3.1-5.96 4.43-3.63-3.72-7-7.7-10.06-11.9v-.01Zm.52-5.64c.05-.82.1-1.65-.69-2.46-3.31 1.1-6.7 2.1-9.4 4.98l.15-3.34c1.29-.24 2.51.27 3.66-.32l-.1-1.04-.5-4.37c-.04-.54-.13-1.12.42-1.6a6.4 6.4 0 0 1 5.02 2.38c1.3 1.68 2.17 3.67 3.27 5.63l-2.15 4.25c.11-1.37.26-2.74.32-4.12Zm-9.5 3.55c3.19-2.66 5.9-3.36 8.66-4.31l-.25 2.46-5.63 3.57c-.9-.65-1.92-1.05-2.78-1.72Zm-1.85-.28-24.73 4.87c.55-2.13.87-4.08 1.55-5.89 1.41-3.76 3.01-7.45 4.54-11.18.14-.33.32-.63.52-1.02.31.3.5.5.74.7.9.74 1.73 1.58 2.7 2.2 2.76 1.7 5.61 3.24 8.35 4.96a6.09 6.09 0 0 0 3.6 1.05c.95-.04 1.91.06 2.93.1l-.2 4.21Zm-23.4 5.33c.4-.1.57-.15.74-.18l11.84-2.36c3.43-.68 6.86-1.35 10.3-2.01.5-.12 1.01-.23 1.52.1.72.47 1.46.92 2.38 1.5-.43.13-.61.2-.79.24l-18.87 4a3.6 3.6 0 0 1-1.11.03 63.4 63.4 0 0 1-3.24-.4 8.9 8.9 0 0 1-2.77-.92Z" fill="#000"></path><path d="M13.61 400.34c2.62 1.24 5.3 1.63 8 1.87.48 0 .97-.06 1.44-.2 6.7-1.4 13.4-2.84 20.1-4.28a6.82 6.82 0 0 0 1.94-.83c1.07-.62 2.08-1.34 3.13-2 .28-.19.58-.31.94-.5l-.08 3.11c3.2 4.35 6.7 8.48 10.46 12.37a2.7 2.7 0 0 0 1.82-.64c.33-.25.68-.47 1.05-.67 2.04-1.06 3.62-2.66 5.14-4.33.23-.25.43-.53.58-.83 1.14-2.45 2.6-4.77 3.3-7.4.56-2.14.97-4.32 1.44-6.49.08-.33.13-.66.2-1.06l6.64-1.63c-.2-1.6-.4-3.12-.58-4.65-.47-4.12-1.51-8.13-2.52-12.15a5.1 5.1 0 0 1-.07-2.22c1.24-6.92 2.54-13.83 3.65-20.78a182.7 182.7 0 0 0 2.23-27.4c.07-8.82-.45-17.62-1.54-26.36-.8-6.43-1.96-12.8-3.39-19.11-.45-2.03-.93-4.04-1.32-6.08a4.22 4.22 0 0 1 .09-1.65c1.02-4.75 2.07-9.48 3.1-14.22a123.68 123.68 0 0 0 2.83-18.84c.22-3.56.2-7.15.22-10.71.02-4.71-.07-9.4-.09-14.11-.01-3.31 0-6.62.01-10.09.64-.91 1.41-1.89 2.06-2.94a10.48 10.48 0 0 0 1.48-5.69c-.1-6.21-.12-12.42-.15-18.62l-.23-56.9-.36-85.34c0-1.58.02-3.16-.04-4.74-.06-.75-.18-1.49-.38-2.21-.52-2.35-1.97-4.2-3.43-6.01-.28-.3-.59-.58-.92-.84a74.36 74.36 0 0 0-8.7-6.45 37.02 37.02 0 0 0-10.4-4.55 59.04 59.04 0 0 0-15.4-2.04c-4.78-.02-9.55.5-14.21 1.55-2.8.61-5.53 1.49-8.16 2.61-1.7.72-3.32 1.6-4.85 2.63a147.4 147.4 0 0 0-8.6 6.42 13.4 13.4 0 0 0-3.87 5.18c-.63 1.44-.94 3-.92 4.58.07 12.8.11 25.59.13 38.37l.3 75.97.19 47.75c0 1.39-.1 2.79.05 4.16.29 2.53 1.35 4.9 3.05 6.78l.45.54.02 7.5-.05.24h.05v.65l-.13.09.12.2.02 5.66c0 4.56-.01 9.11.05 13.66.05 1.2.21 2.4.47 3.58.42 2.13.9 4.26 1.38 6.4.13.62.3 1.24.52 1.84.98 2.58 1.49 5.28 2.05 7.97.24 1.14.47 2.3.8 3.4 1.64 5.51 2.31 11.2 3.38 16.82.76 4.03 1.27 8.1 1.87 11.93l-.2.46c-1.31 3.1-2.58 6-3.7 8.94-2.97 7.68-5.2 15.55-5.75 23.81a66.34 66.34 0 0 0 .96 16.63 5286.6 5286.6 0 0 1 6.5 35.66c.95 5.33 1.74 10.7 2.61 16.14-.86 2-1.78 4.06-2.65 6.14-1 2.44-2.06 4.86-2.91 7.34-.54 1.55-.78 3.21-1.09 4.82-.08.6-.13 1.2-.13 1.8Zm7.45-20.52c.33-.2.68-.36 1.04-.49.34-.06.68-.05 1.01.02.67.13 1.35.15 2.03.08l5.75 6.73 1.04 1.24c-.28.06-.57 0-.82-.15-1.72-1-3.43-2.02-5.16-3.02-1.65-.9-3.12-2.1-4.34-3.55-.2-.28-.38-.56-.55-.86Zm13.46 9.19-.67-.8.08-.06-7.64-8.93c.6-.16 1.17-.38 1.72-.66 1.57-.78 3.33-.83 5.07-1.19l9.88 12.17-.13.24-7.77-.22c-.23-.23-.4-.39-.53-.56Zm-20.2-49.29c.16.38.32.76.45 1.13.83 2.18 1.56 4.4 2.5 6.53 3.35 7.73 7.2 15.23 11.49 22.48 1.32 2.21 2.43 4.55 3.67 6.9-.35.08-.67.17-1.01.22-1.85.33-3.7.63-5.4 1.52-.09.04-.18.08-.27.1l-.6.07c-1.41 0-2.83-.05-4.24-.07l-6.73-38.86.14-.02Zm5.7-58.76c.03.02.02.1.03.13.44 3.28 1.29 9.8 2.1 17.16-3.84 18.63-1.37 35.46 1.49 46.23a97.59 97.59 0 0 0 7.3 19.4l-.02.03c.54.78 1.05 1.55 1.61 2.31a104.3 104.3 0 0 1 9.53 16.1c.9 1.88.9 3.84.98 5.87l-.3-.32-8.76-10.78c-.3-.38-.54-.8-.74-1.25-1.18-2.44-2.19-4.97-3.53-7.31-5.23-9.08-9.96-18.39-13.6-28.23-2.54-6.89-4.34-13.93-4.68-21.3-.28-6.1.28-12.2 1.68-18.15 1.34-5.6 3.15-11.07 5.43-16.35.5-1.15 1-2.37 1.48-3.55Zm23.45 101.1c-1.5-2.76-2.98-5.68-4.62-8.5-1.63-2.82-3.43-5.52-5.25-8.43 1.81.48 3.23-.52 4.77-.95.56 1.05 1.15 1.92 1.48 2.9.8 2.47 1.91 4.82 3.31 7 .35.54.68 1.1.98 1.67l3.4 6.61c.09.2.16.42.22.63l-4.29-.92Zm-1.75-12.1c.17-.1.36-.16.55-.21 4.78-.49 9.6.28 14 2.23a42.22 42.22 0 0 1 11.15 6.51c.7.58 1.4 1.18 2.13 1.74l-10.49 2.74-9.44 2a101.57 101.57 0 0 0-7.9-15.02Zm-5.4-5.78c-.8.38-1.72.36-2.49-.06l-1.68-.82-.3.03c-.36-.67-4.3-8.06-7.24-19.15-2.68-10.1-5.1-25.5-2.11-42.78.57 5.51 1.1 11.29 1.39 16.39.86 15.53 10.55 40.2 13.94 45.88-.52.13-1.02.3-1.51.5v.01ZM10.77 217.6c2.98 5.86 11.29 22.44 14.87 32.48 2.84 7.96 9.86 24.9 14.52 36.03-.73-1.27-1.48-2.53-2.24-3.77-1.22-1.99-2.3-4.05-3.47-6.07a414.07 414.07 0 0 1-14.7-27.59 122.48 122.48 0 0 1-6.56-16.57c-.1-.36-.19-.73-.27-1.1-.3-1.39-.6-2.8-.92-4.2-.24-1.13-.62-2.25-.74-3.4-.19-1.94-.34-3.87-.5-5.8Zm-.49-8.87c3.82 6.36 17.95 30.48 22.47 46.31a648.84 648.84 0 0 0 13.95 42.89l-.2-.39-1.84-3.35c-3.25-7.66-14.32-33.94-18.08-44.44-4.41-12.36-15.9-34.51-16.02-34.74l-.12-1.36a46.78 46.78 0 0 1-.16-4.93Zm59.5-200c-16.65-5.48-33.2-5.23-49.8.35 1.34-.72 2.64-1.54 4.03-2.15A48.49 48.49 0 0 1 39.3 3.16c5.29-.46 10.62-.27 15.86.58C59.12 4.4 63 5.51 66.7 7.1c1.08.46 2.05 1.08 3.07 1.63h.01ZM84.92 185.5a1.36 1.36 0 0 1-.58-.67c-.52-1.32-1.48-2.32-2.38-3.38a20.91 20.91 0 0 0-5.92-4.65c-2.8-1.63-5.8-2.9-8.91-3.77-.87-.23-1.68-.67-2.56-.88-1.8-.4-3.61-.7-5.42-1.06-.47-.09-.93-.3-1.4-.35-1.35-.15-2.7-.22-4.05-.35-1.12-.1-2.23-.33-3.35-.37-2.21-.1-4.43-.1-6.65-.13a9 9 0 0 0-.78.02l-6.6.55c-.3.03-.6.07-.9.13-.84.18-1.68.4-2.53.55-2.19.34-4.35.82-6.47 1.46a71.53 71.53 0 0 0-7.2 2.57 29.87 29.87 0 0 0-9.5 6.33 19.1 19.1 0 0 0-1.69 2.1c-.42.6-.77 1.25-1.16 1.87l-.21-.06c-.02-.32-.06-.64-.06-.96A495304.07 495304.07 0 0 1 6 24.84c0-1.93.71-3.63 1.63-5.2 1.58-2.7 3.95-4.73 6.54-6.42a41.02 41.02 0 0 1 10.89-4.88 66.9 66.9 0 0 1 15.43-2.63c4.03-.23 8.08-.15 12.1.22C56.57 6.29 60.5 7 64.34 8.1c3.05.83 6 1.96 8.83 3.37 3.73 1.91 7.1 4.25 9.45 7.82a9.46 9.46 0 0 1 1.74 5.15l.27 71.34.2 54.4.13 34.1c-.01.41-.05.81-.04 1.22Zm-2.64 10.58c0-1.03-.17-2.12.08-3.1.34-1.32.19-2.58.1-3.9a9.82 9.82 0 0 0-2-5.08 19.67 19.67 0 0 0-6.8-5.84 47.17 47.17 0 0 0-13.32-4.78 72.22 72.22 0 0 0-30.01.35 46.1 46.1 0 0 0-6.17 1.77 40.76 40.76 0 0 0-5.35 2.38c-2.44 1.3-4.75 2.81-6.54 4.93a15.56 15.56 0 0 0-2.55 3.95c-.65 1.52-1.06 3.22-.58 4.96a6 6 0 0 1 .18 1.34c.06 1.22.08 2.44.12 3.71-.19-.06-.3-.07-.32-.11-.58-1.1-1.28-2.16-1.67-3.31a8.11 8.11 0 0 1-.4-3.23c.29-2.64 1.41-5.12 3.21-7.07a26.17 26.17 0 0 1 8-5.97 55.32 55.32 0 0 1 13-4.44 62.2 62.2 0 0 1 10.86-1.26c2.93-.12 5.87-.1 8.8.08 4.1.21 8.16.84 12.14 1.87 2.4.62 4.77 1.38 7.09 2.25 1.83.7 3.6 1.56 5.26 2.57 2.37 1.46 4.61 3.1 6.42 5.28a11.96 11.96 0 0 1 2.39 4.31c.85 3 .23 5.86-1.65 8.38-.1 0-.2-.02-.3-.04Zm-.73 17.32c-1.02-3.5-3.38-8.3-8.8-12.9-9.12-7.74-25.56-13.81-28.89-13.02a1.1 1.1 0 0 0-.82.6c-.91 2.15 1.6 6.9 1.9 7.44.92 2.04 1.89 4.07 2.93 6.05 2.23 4.27 4.6 8.46 6.82 12.74a204.64 204.64 0 0 1 5.2 10.95c-16.8-26.25-31.88-27.81-39.64-26.22-4.52.93-8.07 3.25-9.76 5.27l-.28.13-.02-1.73c-.02-3.91-.14-7.82-.03-11.73.07-1.36.4-2.68.98-3.9a15.42 15.42 0 0 1 4.94-5.78 34.04 34.04 0 0 1 9.6-4.92 49.92 49.92 0 0 1 9.05-2.24c2.3-.32 4.61-.6 6.92-.72 2.09-.14 4.2-.14 6.29-.08 3.63.1 7.26.5 10.83 1.2 3.89.72 7.67 1.9 11.28 3.51 3.2 1.48 6.16 3.3 8.52 5.98 1.63 1.87 2.78 3.9 2.9 6.44.02.52 0 1.04 0 1.57l.05 15.69.03 5.67Zm-6.15 52.07c-.15-.5-.24-.79-.31-1.08-1.3-4.7-2.54-9.44-4.19-14.05-1.73-4.78-3.23-9.64-5.15-14.35a338.28 338.28 0 0 0-15.2-32c-1.43-2.66-2.98-5.24-4.32-7.93-.16-.33-.32-.65-.46-1l.07-.03c-.16-.29-.32-.61-.48-.96-.44-1.1-.82-2.24-1.25-3.35l-.06-.19c-.2-.83-.26-1.56-.08-2.03.52-.35 4.18.1 10.9 2.83 6.72 2.74 13.03 6.36 17.23 9.95 9.7 8.22 9.5 17.37 9.5 17.46l-.01-.12c0 1.72.03 3.44.06 5.15.13 6.97-.44 13.93-1.72 20.78-1.3 6.75-2.8 13.48-4.23 20.2-.08.25-.18.49-.3.72Zm.42 101.04c-.11-.13-.19-.17-.2-.23-.28-.9-.56-1.8-.8-2.7a231.96 231.96 0 0 0-8.73-25.52A299.2 299.2 0 0 0 54.69 313c-1.14-2.2-2.28-4.4-3.43-6.58l.02-.02c-3.79-7.72-12.55-34.1-17.56-51.65-5.11-17.87-22.32-46.13-23.48-48.06l.01-.2.14.02c.16-1.36 3.78-5.2 10.06-6.5 7.99-1.62 24.2.15 41.97 31.04h.03l1.41 3.24c.92 2.1 1.86 4.2 2.62 6.36 2.19 6.26 4.55 12.44 6.41 18.8 2.23 7.6 4.14 15.27 5.6 23.04a192.99 192.99 0 0 1 1.1 62.8c-1.03 6.81-2.32 13.57-3.5 20.35-.08.3-.16.59-.27.87Zm-18.94 4.7c-4.4-1.74-8.92-2.67-13.67-2.27l-1.49.13c-.16-.39-.3-.72-.42-1.06-.41-1.1-.8-2.2-1.22-3.29a1.87 1.87 0 0 0-1.2-1.26c-2.83-4.43-13.11-30-14-45.75-.2-3.5-.5-7.33-.86-11.17-.01-.44-.02-.8-.05-1.15l-.46-4.1c-1.23-11.82-2.84-22.56-2.84-22.56-.24-1.75-.48-3.5-.75-5.24-.95-6.55-2.23-13.06-3.38-19.58-.1-.6-.3-1.17-.45-1.75-.59-2.37-1.2-4.74-1.76-7.12-.51-2.24-1.03-4.46-1.66-6.67-.91-3.18-1.59-6.43-2.3-9.66-.25-1.1-.2-2.23.12-3.3.1.43.2.8.26 1.16a81.52 81.52 0 0 0 4.02 14.44c1.76 4.47 3.79 8.86 5.92 13.17 4.56 9.2 9.73 18.09 14.89 26.97 7.28 12.52 14.48 25.08 20.92 38.07 3.79 7.63 7.23 15.4 10.34 23.32A222.64 222.64 0 0 1 74.39 365c1.5 5.41 3.07 10.8 3.93 16.35.2 1.28.34 2.58.5 3.87a2.46 2.46 0 0 1-1.03-.6 15.57 15.57 0 0 0-3.92-2.83c-2.03-.95-3.8-2.3-5.49-3.73a41.17 41.17 0 0 0-11.5-6.85Zm-2.13 20.45c-.4.05-.81.07-1.22.07l-3.48-6.15 9.16-1.96.66-.15 6.86-1.46c-.05-.03 3.88-1 3.88-1 .62.43 1.26.8 1.94 1.13.78.37 1.53.8 2.26 1.26 1.26.8 2.3 1.86 3.51 2.98l-1.1.34c-7.43 1.9-14.94 3.5-22.47 4.94Zm-.39.76 4.21-.81c-.13.18-.3.34-.47.48l-.19.15a21.38 21.38 0 0 1-5.89 2.8l2.34-2.62Zm12.98 10.27-1.54-1.94.03-.05-1.4-1.67-5.16-6.47.88-1.26L72 388.8c-.16 1.24-.27 2.38-.47 3.47a30.92 30.92 0 0 1-3.1 8.44c-.34.68-.68 1.35-1.07 2v-.01Zm-17.41-5.62 8.34-3.83 1.25 1.41 2.1 2.5 5.12 6.41.02-.02c-.25.35-.52.7-.81 1.01-1.73 1.85-3.82 3.1-5.96 4.43-3.63-3.72-7-7.7-10.06-11.9v-.01Zm.52-5.64c.05-.82.1-1.65-.69-2.46-3.31 1.1-6.7 2.1-9.4 4.98l.15-3.34c1.29-.24 2.51.27 3.66-.32l-.1-1.04-.5-4.37c-.04-.54-.13-1.12.42-1.6a6.4 6.4 0 0 1 5.02 2.38c1.3 1.68 2.17 3.67 3.27 5.63l-2.15 4.25c.11-1.37.26-2.74.32-4.12Zm-9.5 3.55c3.19-2.66 5.9-3.36 8.66-4.31l-.25 2.46-5.63 3.57c-.9-.65-1.92-1.05-2.78-1.72Zm-1.85-.28-24.73 4.87c.55-2.13.87-4.08 1.55-5.89 1.41-3.76 3.01-7.45 4.54-11.18.14-.33.32-.63.52-1.02.31.3.5.5.74.7.9.74 1.73 1.58 2.7 2.2 2.76 1.7 5.61 3.24 8.35 4.96a6.09 6.09 0 0 0 3.6 1.05c.95-.04 1.91.06 2.93.1l-.2 4.21Zm-23.4 5.33c.4-.1.57-.15.74-.18l11.84-2.36c3.43-.68 6.86-1.35 10.3-2.01.5-.12 1.01-.23 1.52.1.72.47 1.46.92 2.38 1.5-.43.13-.61.2-.79.24l-18.87 4a3.6 3.6 0 0 1-1.11.03 63.4 63.4 0 0 1-3.24-.4 8.9 8.9 0 0 1-2.77-.92Z" fill="red" fill-opacity=".2"></path></g></svg>